<?xml version="1.0" encoding="UTF-8"?>
<svg version="1.1" xmlns="http://www.w3.org/2000/svg" width="512" height="512">
<path d="M0 0 C0.81984375 0.69738281 1.6396875 1.39476562 2.484375 2.11328125 C28.83888557 25.15301642 46.50011929 57.99652644 50 93 C50.28250197 98.93447624 50.19166295 104.87383734 50.125 110.8125 C50.11493897 112.39127029 50.1058187 113.97004687 50.09765625 115.54882812 C50.07591564 119.36604453 50.04156265 123.18295009 50 127 C50.85360107 126.98259766 51.70720215 126.96519531 52.58666992 126.94726562 C71.48625968 126.72298569 88.73671119 133.55458133 103 146 C103.96808594 146.77214844 104.93617188 147.54429687 105.93359375 148.33984375 C115.53413081 156.35382589 121.57843272 167.50996134 126 179 C126.43441406 180.11246094 126.86882812 181.22492188 127.31640625 182.37109375 C133.83449162 202.37957183 131.24480722 224.72722185 122.1875 243.375 C119.07915425 249.46302518 115.48205254 254.82429648 111 260 C110.40316406 260.79277344 109.80632812 261.58554687 109.19140625 262.40234375 C97.1396475 276.68829664 77.84490849 285.43087874 59.47700429 287.37238407 C55.91926266 287.50890529 52.38071009 287.53387089 48.82046509 287.50793457 C47.46256896 287.51255859 46.10467786 287.51892146 44.74679697 287.52684355 C41.06224978 287.54335491 37.37812344 287.53537485 33.69357586 287.52289867 C29.70162975 287.51377467 25.70975144 287.52785411 21.71781921 287.53881836 C13.91555207 287.55653141 6.11343954 287.55279567 -1.68883346 287.5411678 C-8.03559646 287.53210389 -14.38231639 287.53092221 -20.72908401 287.53526306 C-21.63523722 287.53587599 -22.54139043 287.53648893 -23.47500283 287.53712043 C-25.3163354 287.53839944 -27.15766796 287.5396963 -28.9990005 287.5410108 C-46.23405127 287.5523958 -63.46901671 287.53933629 -80.70405348 287.51780933 C-95.46192474 287.49994631 -110.21967008 287.50303994 -124.97753906 287.52148438 C-142.15128321 287.5429384 -159.32495268 287.551291 -176.49870837 287.53903532 C-178.33356705 287.53776125 -180.16842575 287.53650376 -182.00328445 287.53526306 C-182.90585981 287.53464596 -183.80843517 287.53402886 -184.73836129 287.53339306 C-191.06946236 287.52995327 -197.40051568 287.53573889 -203.73160934 287.54518127 C-211.45881174 287.55645342 -219.18585182 287.55325269 -226.91303585 287.5320583 C-230.8484047 287.52161657 -234.78350391 287.51730684 -238.71887016 287.53065491 C-269.0091304 287.62481892 -269.0091304 287.62481892 -283 283 C-284.19203726 282.61169258 -285.38407452 282.22338516 -286.61223412 281.82331085 C-299.30783193 277.48062774 -310.01398808 269.80834007 -320 261 C-320.93392578 260.19175781 -320.93392578 260.19175781 -321.88671875 259.3671875 C-337.63264509 244.75907868 -349.01673253 221.4854285 -350.16113281 199.97070312 C-350.53292116 171.73208126 -350.53292116 171.73208126 -347 161 C-346.70198486 160.05906494 -346.70198486 160.05906494 -346.39794922 159.09912109 C-341.70846625 144.53186576 -334.12863156 132.48282589 -324 121 C-323.46117187 120.37738281 -322.92234375 119.75476563 -322.3671875 119.11328125 C-307.80806887 103.42016092 -284.30475532 91.7392761 -262.79614258 90.87060547 C-261.67361084 90.86947754 -260.5510791 90.86834961 -259.39453125 90.8671875 C-258.16412109 90.86589844 -256.93371094 90.86460937 -255.66601562 90.86328125 C-254.39435547 90.86714844 -253.12269531 90.87101562 -251.8125 90.875 C-249.88760742 90.86919922 -249.88760742 90.86919922 -247.92382812 90.86328125 C-246.08401367 90.86521484 -246.08401367 90.86521484 -244.20703125 90.8671875 C-243.0878833 90.86831543 -241.96873535 90.86944336 -240.81567383 90.87060547 C-238 91 -238 91 -235 92 C-235.03351563 91.00871094 -235.06703125 90.01742187 -235.1015625 88.99609375 C-234.99620187 84.850558 -234.3498624 81.07000776 -233.375 77.0625 C-233.19678711 76.32523682 -233.01857422 75.58797363 -232.83496094 74.82836914 C-223.57395351 38.09382316 -199.99333434 5.80350097 -167.5 -13.76953125 C-114.53391067 -44.55518317 -46.94027235 -40.17900795 0 0 Z " fill="#FFFFFF" transform="translate(366,129)"/>
</svg>
